HIERARCHY
ROOT newVegas:Hips
{
	OFFSET 0.000000 96.479958 0.000000
	CHANNELS 6 Xposition Yposition Zposition Xrotation Yrotation Zrotation
	JOINT newVegas:Pelvis
	{
		OFFSET 0.000000 0.000000 0.000000
		CHANNELS 3 Xrotation Yrotation Zrotation
		JOINT newVegas:LeftUpLeg
		{
			OFFSET 18.735201 -5.666702 -4.541200
			CHANNELS 3 Xrotation Yrotation Zrotation
			JOINT newVegas:LeftLeg
			{
				OFFSET -0.021200 -31.938179 0.493100
				CHANNELS 3 Xrotation Yrotation Zrotation
				JOINT newVegas:LeftFoot
				{
					OFFSET 0.021200 -31.938179 -4.336299
					CHANNELS 3 Xrotation Yrotation Zrotation
					JOINT newVegas:LeftToeBase
					{
						OFFSET 0.943001 -26.722000 15.023500
						CHANNELS 3 Xrotation Yrotation Zrotation
						End Site
						{
							OFFSET 0.000000 30.670183 0.000000
						}
					}
				}
				JOINT newVegas:Left_PantLeg
				{
					OFFSET 0.663870 -9.044666 -1.108900
					CHANNELS 3 Xrotation Yrotation Zrotation
					End Site
					{
						OFFSET 1.415995 20.635357 0.000000
					}
				}
			}
		}
		JOINT newVegas:RightUpLeg
		{
			OFFSET -18.735201 -5.666702 -4.541200
			CHANNELS 3 Xrotation Yrotation Zrotation
			JOINT newVegas:RightLeg
			{
				OFFSET 0.018946 -31.938133 0.493100
				CHANNELS 3 Xrotation Yrotation Zrotation
				JOINT newVegas:RightFoot
				{
					OFFSET -0.018946 -31.938126 -4.336299
					CHANNELS 3 Xrotation Yrotation Zrotation
					JOINT newVegas:RightToeBase
					{
						OFFSET -0.943001 -26.722004 15.023500
						CHANNELS 3 Xrotation Yrotation Zrotation
						End Site
						{
							OFFSET 0.000000 30.670187 0.000000
						}
					}
				}
				JOINT newVegas:Right_PantLeg
				{
					OFFSET -0.661674 -9.044716 -1.108900
					CHANNELS 3 Xrotation Yrotation Zrotation
					End Site
					{
						OFFSET -1.415958 20.635269 0.000000
					}
				}
			}
		}
	}
	JOINT newVegas:Spine
	{
		OFFSET 0.000000 10.199997 -0.299500
		CHANNELS 3 Xrotation Yrotation Zrotation
		JOINT newVegas:Spine1
		{
			OFFSET 0.000000 11.900002 -1.516600
			CHANNELS 3 Xrotation Yrotation Zrotation
			JOINT newVegas:Spine2
			{
				OFFSET 0.000000 13.600006 -2.842500
				CHANNELS 3 Xrotation Yrotation Zrotation
				JOINT newVegas:Neck
				{
					OFFSET 0.000000 9.624100 -2.890100
					CHANNELS 3 Xrotation Yrotation Zrotation
					JOINT newVegas:Head
					{
						OFFSET 0.000000 14.068802 -1.351900
						CHANNELS 3 Xrotation Yrotation Zrotation
						JOINT newVegas:Hair_Back
						{
							OFFSET 0.000000 3.231903 -17.524799
							CHANNELS 3 Xrotation Yrotation Zrotation
							End Site
							{
								OFFSET 0.000000 19.849884 0.000000
							}
						}
						JOINT newVegas:Hair_Front
						{
							OFFSET 0.000000 31.260406 4.573800
							CHANNELS 3 Xrotation Yrotation Zrotation
							JOINT newVegas:Hair_Front1
							{
								OFFSET 0.000000 2.284103 11.993300
								CHANNELS 3 Xrotation Yrotation Zrotation
								JOINT newVegas:Hair_Front2
								{
									OFFSET 0.000000 2.284103 11.993300
									CHANNELS 3 Xrotation Yrotation Zrotation
									End Site
									{
										OFFSET 0.000000 12.208862 0.000000
									}
								}
							}
						}
						JOINT newVegas:Jowel
						{
							OFFSET 0.000000 -7.458206 6.864100
							CHANNELS 3 Xrotation Yrotation Zrotation
							End Site
							{
								OFFSET 0.000000 19.849884 0.000000
							}
						}
					}
				}
				JOINT newVegas:LeftShoulder
				{
					OFFSET 15.263000 10.923401 -0.547700
					CHANNELS 3 Xrotation Yrotation Zrotation
					JOINT newVegas:LeftArm
					{
						OFFSET 25.438599 -2.830597 -13.032500
						CHANNELS 3 Xrotation Yrotation Zrotation
						JOINT newVegas:LeftForeArm
						{
							OFFSET 29.960503 0.000000 0.000000
							CHANNELS 3 Xrotation Yrotation Zrotation
							JOINT newVegas:LeftHand
							{
								OFFSET 27.849251 0.000000 0.000000
								CHANNELS 3 Xrotation Yrotation Zrotation
								JOINT newVegas:LeftHandThumb1
								{
									OFFSET 4.487587 -3.305161 6.305391
									CHANNELS 3 Xrotation Yrotation Zrotation
									JOINT newVegas:LeftHandThumb2
									{
										OFFSET 5.480453 -3.164139 3.164143
										CHANNELS 3 Xrotation Yrotation Zrotation
										JOINT newVegas:LeftHandThumb3
										{
											OFFSET 5.159721 -2.978973 2.978967
											CHANNELS 3 Xrotation Yrotation Zrotation
											End Site
											{
												OFFSET 2.494507 5.926697 1.738678
											}
										}
									}
								}
								JOINT newVegas:LeftHandIndex1
								{
									OFFSET 18.578728 -0.527832 5.208049
									CHANNELS 3 Xrotation Yrotation Zrotation
									JOINT newVegas:LeftHandIndex2
									{
										OFFSET 3.192009 0.000000 0.000000
										CHANNELS 3 Xrotation Yrotation Zrotation
										JOINT newVegas:LeftHandIndex3
										{
											OFFSET 3.835129 0.000000 0.000000
											CHANNELS 3 Xrotation Yrotation Zrotation
											End Site
											{
												OFFSET -0.034599 3.816971 0.371180
											}
										}
									}
								}
								JOINT newVegas:LeftHandMiddle1
								{
									OFFSET 18.476105 0.000000 0.000000
									CHANNELS 3 Xrotation Yrotation Zrotation
									JOINT newVegas:LeftHandMiddle2
									{
										OFFSET 3.324875 0.000000 0.000000
										CHANNELS 3 Xrotation Yrotation Zrotation
										JOINT newVegas:LeftHandMiddle3
										{
											OFFSET 4.596550 0.000000 0.000000
											CHANNELS 3 Xrotation Yrotation Zrotation
											End Site
											{
												OFFSET 0.057701 4.578827 0.399218
											}
										}
									}
								}
								JOINT newVegas:LeftHandRing1
								{
									OFFSET 17.732719 0.121887 -4.201567
									CHANNELS 3 Xrotation Yrotation Zrotation
									JOINT newVegas:LeftHandRing2
									{
										OFFSET 2.733170 0.000000 0.000000
										CHANNELS 3 Xrotation Yrotation Zrotation
										JOINT newVegas:LeftHandRing3
										{
											OFFSET 3.178268 0.000000 0.000000
											CHANNELS 3 Xrotation Yrotation Zrotation
											End Site
											{
												OFFSET 0.119102 3.170624 0.185394
											}
										}
									}
								}
								JOINT newVegas:LeftHandPinky1
								{
									OFFSET 15.989624 -0.606689 -7.535461
									CHANNELS 3 Xrotation Yrotation Zrotation
									JOINT newVegas:LeftHandPinky2
									{
										OFFSET 2.538986 0.000000 0.000000
										CHANNELS 3 Xrotation Yrotation Zrotation
										JOINT newVegas:LeftHandPinky3
										{
											OFFSET 2.593102 0.000000 0.000000
											CHANNELS 3 Xrotation Yrotation Zrotation
											End Site
											{
												OFFSET -0.150902 2.584198 0.152708
											}
										}
									}
								}
							}
							JOINT newVegas:Left_Sleeve
							{
								OFFSET 0.267448 -0.649796 0.577675
								CHANNELS 3 Xrotation Yrotation Zrotation
								End Site
								{
									OFFSET 0.000000 15.991241 0.000000
								}
							}
							JOINT newVegas:Left_CapeC
							{
								OFFSET 15.715958 -8.608795 -6.935905
								CHANNELS 3 Xrotation Yrotation Zrotation
								JOINT newVegas:Left_CapeC1
								{
									OFFSET 0.000000 -8.688499 0.000000
									CHANNELS 3 Xrotation Yrotation Zrotation
									End Site
									{
										OFFSET 0.000000 8.688499 0.000000
									}
								}
							}
						}
						JOINT newVegas:Left_CapeB
						{
							OFFSET 26.118385 -8.608795 -7.079235
							CHANNELS 3 Xrotation Yrotation Zrotation
							JOINT newVegas:Left_CapeB1
							{
								OFFSET 0.000000 -8.688499 0.000000
								CHANNELS 3 Xrotation Yrotation Zrotation
								End Site
								{
									OFFSET 0.000000 8.688499 0.000000
								}
							}
						}
						JOINT newVegas:Left_CapeA
						{
							OFFSET 5.115639 -8.608795 -10.395809
							CHANNELS 3 Xrotation Yrotation Zrotation
							JOINT newVegas:Left_CapeA1
							{
								OFFSET 0.000000 -8.688499 0.000000
								CHANNELS 3 Xrotation Yrotation Zrotation
								End Site
								{
									OFFSET 0.000000 8.688499 0.000000
								}
							}
						}
					}
				}
				JOINT newVegas:RightShoulder
				{
					OFFSET -15.263000 10.923401 -0.547700
					CHANNELS 3 Xrotation Yrotation Zrotation
					JOINT newVegas:RightArm
					{
						OFFSET -25.438599 -2.830597 -13.032500
						CHANNELS 3 Xrotation Yrotation Zrotation
						JOINT newVegas:RightForeArm
						{
							OFFSET -29.960503 0.000000 0.000000
							CHANNELS 3 Xrotation Yrotation Zrotation
							JOINT newVegas:RightHand
							{
								OFFSET -27.849251 0.000000 0.000000
								CHANNELS 3 Xrotation Yrotation Zrotation
								JOINT newVegas:RightHandThumb1
								{
									OFFSET -4.487587 -3.305161 6.305391
									CHANNELS 3 Xrotation Yrotation Zrotation
									JOINT newVegas:RightHandThumb2
									{
										OFFSET -5.480453 -3.164139 3.164143
										CHANNELS 3 Xrotation Yrotation Zrotation
										JOINT newVegas:RightHandThumb3
										{
											OFFSET -5.159721 -2.978973 2.978967
											CHANNELS 3 Xrotation Yrotation Zrotation
											End Site
											{
												OFFSET -2.494507 5.926697 1.738678
											}
										}
									}
								}
								JOINT newVegas:RightHandIndex1
								{
									OFFSET -18.578728 -0.527832 5.208049
									CHANNELS 3 Xrotation Yrotation Zrotation
									JOINT newVegas:RightHandIndex2
									{
										OFFSET -3.192009 0.000000 0.000000
										CHANNELS 3 Xrotation Yrotation Zrotation
										JOINT newVegas:RightHandIndex3
										{
											OFFSET -3.835129 0.000000 0.000000
											CHANNELS 3 Xrotation Yrotation Zrotation
											End Site
											{
												OFFSET 0.034599 3.816971 0.371180
											}
										}
									}
								}
								JOINT newVegas:RightHandMiddle1
								{
									OFFSET -18.476105 0.000000 0.000000
									CHANNELS 3 Xrotation Yrotation Zrotation
									JOINT newVegas:RightHandMiddle2
									{
										OFFSET -3.324875 0.000000 0.000000
										CHANNELS 3 Xrotation Yrotation Zrotation
										JOINT newVegas:RightHandMiddle3
										{
											OFFSET -4.596550 0.000000 0.000000
											CHANNELS 3 Xrotation Yrotation Zrotation
											End Site
											{
												OFFSET -0.057701 4.578827 0.399218
											}
										}
									}
								}
								JOINT newVegas:RightHandRing1
								{
									OFFSET -17.732719 0.121887 -4.201567
									CHANNELS 3 Xrotation Yrotation Zrotation
									JOINT newVegas:RightHandRing2
									{
										OFFSET -2.733170 0.000000 0.000000
										CHANNELS 3 Xrotation Yrotation Zrotation
										JOINT newVegas:RightHandRing3
										{
											OFFSET -3.178268 0.000000 0.000000
											CHANNELS 3 Xrotation Yrotation Zrotation
											End Site
											{
												OFFSET -0.119102 3.170624 0.185394
											}
										}
									}
								}
								JOINT newVegas:RightHandPinky1
								{
									OFFSET -15.989624 -0.606689 -7.535461
									CHANNELS 3 Xrotation Yrotation Zrotation
									JOINT newVegas:RightHandPinky2
									{
										OFFSET -2.538986 0.000000 0.000000
										CHANNELS 3 Xrotation Yrotation Zrotation
										JOINT newVegas:RightHandPinky3
										{
											OFFSET -2.593102 0.000000 0.000000
											CHANNELS 3 Xrotation Yrotation Zrotation
											End Site
											{
												OFFSET 0.150902 2.584198 0.152708
											}
										}
									}
								}
							}
							JOINT newVegas:Right_CapeC
							{
								OFFSET -15.715958 -8.608795 -6.935905
								CHANNELS 3 Xrotation Yrotation Zrotation
								JOINT newVegas:Right_CapeC1
								{
									OFFSET 0.000000 -8.688499 0.000000
									CHANNELS 3 Xrotation Yrotation Zrotation
									End Site
									{
										OFFSET 0.000000 8.688499 0.000000
									}
								}
							}
							JOINT newVegas:Right_Sleeve
							{
								OFFSET -0.267448 -0.649994 0.577675
								CHANNELS 3 Xrotation Yrotation Zrotation
								End Site
								{
									OFFSET 0.000000 15.991302 0.000000
								}
							}
						}
						JOINT newVegas:Right_CapeA
						{
							OFFSET -5.115540 -8.608795 -10.395824
							CHANNELS 3 Xrotation Yrotation Zrotation
							JOINT newVegas:Right_CapeA1
							{
								OFFSET 0.000000 -8.688499 0.000000
								CHANNELS 3 Xrotation Yrotation Zrotation
								End Site
								{
									OFFSET 0.000000 8.688499 0.000000
								}
							}
						}
						JOINT newVegas:Right_CapeB
						{
							OFFSET -26.118187 -8.608795 -7.079266
							CHANNELS 3 Xrotation Yrotation Zrotation
							JOINT newVegas:Right_CapeB1
							{
								OFFSET 0.000000 -8.688499 0.000000
								CHANNELS 3 Xrotation Yrotation Zrotation
								End Site
								{
									OFFSET 0.000000 8.688499 0.000000
								}
							}
						}
					}
				}
				JOINT newVegas:Left_Collar
				{
					OFFSET 18.625099 8.655502 8.828100
					CHANNELS 3 Xrotation Yrotation Zrotation
					JOINT newVegas:Left_Collar1
					{
						OFFSET 14.783401 10.540405 -1.259500
						CHANNELS 3 Xrotation Yrotation Zrotation
						End Site
						{
							OFFSET 0.000000 18.199875 0.000000
						}
					}
				}
				JOINT newVegas:Collar_Back
				{
					OFFSET 0.000000 15.630707 -20.132601
					CHANNELS 3 Xrotation Yrotation Zrotation
					End Site
					{
						OFFSET 0.000000 22.523010 0.000000
					}
				}
				JOINT newVegas:Left_Peck
				{
					OFFSET 17.239599 -5.132599 25.482599
					CHANNELS 3 Xrotation Yrotation Zrotation
					End Site
					{
						OFFSET 0.000000 22.523010 0.000000
					}
				}
				JOINT newVegas:Right_Peck
				{
					OFFSET -17.239599 -5.132202 25.482599
					CHANNELS 3 Xrotation Yrotation Zrotation
					End Site
					{
						OFFSET 0.000000 22.523010 0.000000
					}
				}
				JOINT newVegas:Right_Collar
				{
					OFFSET -18.625099 8.655792 8.828100
					CHANNELS 3 Xrotation Yrotation Zrotation
					JOINT newVegas:Right_Collar1
					{
						OFFSET -14.783401 10.539993 -1.259500
						CHANNELS 3 Xrotation Yrotation Zrotation
						End Site
						{
							OFFSET 0.000000 18.199631 0.000000
						}
					}
				}
			}
		}
		JOINT newVegas:Belly
		{
			OFFSET 0.000000 -6.540398 9.014299
			CHANNELS 3 Xrotation Yrotation Zrotation
			End Site
			{
				OFFSET 0.000000 11.566666 0.000000
			}
		}
	}
	JOINT newVegas:ElvisFacialAnim_Joint
	{
		OFFSET 1.000000 -95.330101 -8.825800
		CHANNELS 3 Xrotation Yrotation Zrotation
		End Site
		{
			OFFSET 0.000000 35.315800 0.000000
		}
	}
}
MOTION
Frames: 4
Frame Time: 0.033333
1.284317 51.557365 3.667898 4.408934 6.583906 0.630203 0.000000 0.000000 -0.000000 -111.581624 -2.842292 9.279619 123.411451 -3.008329 -3.049100 -16.047989 4.346559 3.064518 0.000000 0.000001 -0.000000 -0.000001 -0.000001 0.000001 -105.084434 21.720193 -21.095441 136.473518 5.884620 3.235599 -10.064928 8.977858 6.391969 0.000002 -0.000000 0.000000 -0.000000 0.000000 -0.000002 9.072498 2.211934 0.744490 18.127814 4.942835 1.262704 18.127834 4.942839 1.262702 2.499465 0.321358 0.013326 2.499449 0.321354 0.013326 0.000002 0.000001 -0.000000 2.499504 0.321355 0.013327 2.499427 0.321374 0.013326 0.000001 0.000001 0.000002 0.000002 0.000001 -0.000001 -1.426515 -2.100116 12.022408 42.614500 -31.809448 -45.800701 -0.157903 -101.675241 -0.076131 -38.129903 -12.570704 3.025983 63.303361 -23.423408 21.870788 -12.575537 26.307761 15.170924 0.000001 0.000000 -0.000001 -7.627941 -4.397470 7.340649 0.360526 0.676790 -49.440055 0.000003 -0.000002 0.000003 -0.775656 2.570149 -2.645170 -2.271145 -4.068123 -57.181575 -0.000001 -0.000001 0.000001 1.637973 6.268719 1.579411 -2.917870 -4.337285 -68.903502 -0.000001 -0.000001 -0.000000 4.362716 4.261154 -15.041432 -1.519257 -4.806204 -37.341594 0.000004 0.000000 0.000001 0.000001 0.000001 0.000001 0.000001 0.000001 0.000001 0.000000 0.000001 0.000001 0.000001 0.000000 -0.000000 0.000001 -0.000001 -0.000004 0.000001 0.000000 -0.000000 -0.000000 0.000001 -0.000001 1.565033 15.105037 -7.424648 10.166456 57.609442 36.721050 -0.324728 98.220627 0.337927 7.910854 12.134044 -9.646407 -2.935638 -16.968594 -2.940966 -0.611967 -0.813453 -1.813036 0.000001 0.000001 -0.000001 -6.855878 -2.215654 20.453732 0.357112 -1.299920 32.470692 0.000000 0.000000 0.000002 -1.434846 -3.132645 15.671753 -1.795584 2.990318 60.729302 -0.000001 -0.000001 -0.000001 3.460371 -7.616399 19.214644 -3.214487 5.449195 59.948297 0.000001 0.000001 0.000001 5.815294 -3.637244 27.326661 -3.280683 8.020549 48.750748 -0.000001 0.000002 0.000000 -0.000000 0.000000 -0.000000 -0.000000 0.000000 -0.000000 -0.000000 0.000001 -0.000000 0.000001 0.000000 0.000000 0.000001 0.000000 0.000000 0.000001 0.000000 0.000000 0.000001 -0.000000 0.000000 -0.000000 0.000001 0.000001 -0.000000 0.000001 0.000001 -0.000000 0.000001 0.000001 -0.000000 0.000001 0.000001 -0.000000 0.000001 0.000001 -0.000000 0.000001 0.000001 -0.000000 0.000001 0.000001 0.000000 0.000000 0.000000 0.000000 0.000000 -0.000000 
1.211726 51.750031 3.682589 3.862796 6.097706 0.732024 0.000000 0.000000 -0.000000 -110.498582 -2.933780 9.965469 123.488236 -3.034368 -3.046831 -16.629241 4.183415 3.111456 0.000000 -0.000001 -0.000000 0.000001 0.000002 0.000001 -104.655280 21.402528 -20.238783 136.193207 5.778265 3.229860 -9.974043 8.662233 6.487808 0.000002 -0.000001 0.000000 -0.000001 0.000000 -0.000001 9.137401 1.754184 0.629491 18.259254 4.043311 1.142332 18.259234 4.043313 1.142329 2.420506 0.362239 -0.102968 2.420506 0.362242 -0.102966 -0.000001 0.000000 -0.000000 2.420501 0.362246 -0.102966 2.420527 0.362248 -0.102971 0.000005 0.000000 0.000001 -0.000001 0.000000 -0.000000 -1.564469 -2.205840 12.478591 36.328847 -27.519800 -49.021716 -0.194510 -106.117719 -0.123248 -39.080509 -11.005638 -5.961113 62.592776 -21.545309 19.112990 -12.660346 26.358159 15.236637 0.000002 -0.000006 -0.000009 -8.037815 -3.649943 4.652263 0.274866 0.612874 -43.306534 0.000002 0.000000 -0.000001 -0.815187 2.664190 -4.773985 -2.169503 -3.993052 -55.617496 -0.000001 -0.000001 -0.000000 1.630820 5.998933 -1.076482 -2.722353 -4.261477 -65.575922 -0.000001 0.000001 -0.000001 4.174130 3.406120 -16.919502 -0.843217 -3.713976 -26.303753 -0.000000 -0.000002 0.000002 -0.000002 0.000000 -0.000002 -0.000002 0.000000 -0.000002 -0.000003 0.000000 -0.000001 -0.000001 0.000002 0.000001 0.000000 0.000002 -0.000002 -0.000001 0.000002 0.000001 -0.000001 0.000002 0.000001 1.495789 11.619461 -9.717794 2.852557 55.333377 46.305005 -0.222612 98.485392 0.233650 4.780926 15.166427 -19.710644 -2.855952 -16.981334 -3.486896 -0.708664 -0.325244 -1.691141 0.000001 -0.000003 -0.000001 -6.075703 -2.603648 21.768889 0.403262 -1.446350 35.167493 -0.000001 0.000001 0.000006 -1.474297 -3.279299 13.377404 -1.639897 2.831855 57.992985 0.000002 -0.000001 -0.000001 3.305693 -7.583269 16.808894 -3.121394 5.473743 59.055236 0.000000 0.000001 -0.000001 6.052393 -5.132646 24.200397 -3.908859 8.906222 53.347988 0.000000 -0.000002 0.000001 0.000000 -0.000001 0.000000 0.000000 -0.000001 0.000000 0.000000 -0.000001 -0.000000 -0.000000 0.000000 0.000000 -0.000000 0.000000 -0.000000 -0.000000 0.000000 0.000000 -0.000000 -0.000000 -0.000000 0.000001 0.000000 -0.000001 0.000001 0.000000 -0.000001 0.000001 0.000000 -0.000001 0.000001 0.000000 -0.000001 0.000001 0.000000 -0.000001 0.000001 0.000000 -0.000001 0.000001 0.000000 -0.000001 -0.000001 -0.000001 0.000000 0.000000 0.000000 -0.000000 
1.177082 52.058350 3.726794 3.392100 5.669347 0.739297 -0.000000 0.000000 0.000000 -109.291209 -3.073747 10.539423 123.438157 -3.062629 -3.046443 -17.290306 4.053420 3.057281 -0.000000 -0.000000 0.000000 0.000001 -0.000000 -0.000000 -103.820781 20.819762 -19.826178 135.718304 5.642180 3.223568 -10.100146 8.525317 6.403126 0.000001 -0.000001 0.000000 -0.000001 -0.000000 0.000000 9.162584 1.312604 0.535665 18.311295 3.177663 1.062090 18.311293 3.177661 1.062092 2.250162 0.377603 -0.154098 2.250171 0.377605 -0.154098 0.000000 0.000001 0.000001 2.250123 0.377610 -0.154096 2.250182 0.377595 -0.154096 0.000001 0.000000 0.000000 0.000000 0.000001 0.000001 -1.219448 -2.930618 12.707490 26.282517 -23.111793 -54.281166 -0.221331 -108.864159 -0.165232 -40.204406 -6.094768 -10.606823 61.192116 -19.741448 16.135543 -12.270015 26.064591 14.929093 0.000000 -0.000003 -0.000001 -8.260888 -2.768239 2.850206 0.228621 0.570893 -39.858945 -0.000001 -0.000001 0.000000 -0.860040 2.533181 -6.493352 -2.173730 -3.986793 -55.627878 -0.000001 0.000001 -0.000001 1.583039 5.760477 -3.710897 -2.632587 -4.230807 -63.531845 0.000002 0.000001 0.000001 4.019368 2.896327 -18.085784 -0.605800 -3.103834 -20.957269 0.000005 -0.000007 0.000000 -0.000001 0.000000 -0.000001 -0.000001 0.000000 -0.000001 -0.000002 0.000000 -0.000001 0.000001 0.000000 0.000001 0.000001 -0.000001 -0.000003 0.000001 0.000000 0.000001 0.000000 -0.000000 -0.000000 1.312297 8.485512 -12.546519 -5.766049 51.554862 57.674773 -0.159738 98.385173 0.168261 -3.648936 15.664011 -25.333148 -2.843465 -17.043854 -4.337200 -0.764838 -0.089957 -1.647787 0.000001 0.000000 -0.000002 -5.332547 -2.402522 19.882592 0.474977 -1.612200 38.447459 0.000001 0.000000 -0.000001 -1.523959 -3.434679 9.261771 -1.477528 2.648620 54.907317 -0.000000 0.000002 0.000004 3.082922 -7.991051 12.415389 -2.957886 5.460498 57.440539 -0.000001 0.000001 0.000003 6.251402 -7.429994 19.252645 -4.407858 9.641871 56.572555 0.000001 -0.000000 -0.000000 -0.000000 0.000000 -0.000000 -0.000000 -0.000000 -0.000000 -0.000000 -0.000000 0.000000 0.000000 0.000001 0.000000 0.000000 0.000001 0.000000 0.000000 0.000001 0.000000 0.000000 0.000001 -0.000000 0.000001 -0.000000 -0.000001 0.000001 -0.000000 -0.000001 0.000001 -0.000000 -0.000001 0.000001 -0.000000 -0.000001 0.000001 -0.000000 -0.000001 0.000001 -0.000000 -0.000001 0.000001 -0.000000 -0.000001 -0.000001 -0.000000 0.000000 -0.000000 0.000000 0.000000 
1.168587 52.460457 3.798131 3.006568 5.247874 0.665099 -0.000000 -0.000000 -0.000000 -107.963646 -3.258009 11.008973 123.278849 -3.091581 -3.047019 -18.058790 4.001802 2.932893 -0.000000 0.000000 -0.000000 -0.000001 -0.000001 0.000001 -102.739897 19.997230 -19.734151 135.065160 5.471598 3.215937 -10.342031 8.554610 6.137482 0.000001 -0.000000 0.000000 -0.000001 -0.000000 -0.000000 9.141724 0.895837 0.439635 18.272105 2.362072 0.977823 18.272110 2.362072 0.977824 2.010544 0.370135 -0.151215 2.010538 0.370129 -0.151214 -0.000000 0.000000 -0.000000 2.010643 0.370115 -0.151214 2.010512 0.370145 -0.151220 0.000003 -0.000000 0.000001 -0.000000 0.000000 -0.000000 -0.523102 -4.321126 12.682383 14.467082 -18.744872 -59.369152 -0.234073 -110.607045 -0.197752 -41.500332 0.876043 -10.165786 58.484062 -18.148443 12.921681 -11.252928 25.308967 14.137838 0.000002 -0.000005 0.000000 -8.361256 -1.925303 1.562444 0.239891 0.585555 -41.055895 0.000000 0.000001 -0.000001 -0.901188 2.377857 -7.741762 -2.274456 -4.045059 -57.068181 0.000001 -0.000001 0.000000 1.506675 5.543823 -6.212002 -2.641594 -4.249268 -62.799314 -0.000001 -0.000001 0.000002 3.889990 2.564236 -18.840773 -0.682531 -3.294313 -22.624225 -0.000003 -0.000002 0.000001 -0.000003 0.000003 -0.000003 -0.000003 0.000003 -0.000003 -0.000004 0.000003 -0.000003 0.000001 -0.000001 0.000001 0.000001 -0.000002 -0.000002 0.000001 -0.000001 0.000001 -0.000001 -0.000002 0.000000 1.132308 6.534805 -14.198150 -11.405402 47.235563 64.750248 -0.160009 98.467081 0.167504 -14.297691 12.075482 -25.279831 -2.859506 -17.101696 -5.382707 -0.747280 -0.080244 -1.654643 -0.000001 -0.000000 -0.000000 -4.610319 -1.203780 11.965837 0.566381 -1.777335 41.902719 -0.000001 0.000001 0.000000 -1.585310 -3.409147 2.696633 -1.308756 2.441116 51.371280 0.000000 0.000000 -0.000000 2.674363 -8.790471 5.622353 -2.685937 5.369435 54.674186 -0.000001 0.000001 -0.000002 6.021674 -10.314737 12.019453 -4.513973 10.137890 57.177371 0.000000 -0.000002 -0.000001 0.000000 -0.000000 0.000000 0.000001 -0.000000 -0.000000 0.000000 -0.000000 -0.000000 -0.000001 0.000000 -0.000000 -0.000001 0.000001 -0.000000 -0.000001 0.000000 -0.000000 -0.000001 0.000001 -0.000000 0.000003 0.000000 0.000000 0.000003 0.000000 0.000000 0.000003 0.000000 0.000000 0.000003 0.000000 0.000000 0.000003 0.000000 0.000000 0.000003 0.000000 0.000000 0.000003 0.000000 0.000000 -0.000000 0.000000 -0.000000 -0.000000 -0.000000 -0.000000 
